<svg width="742" height="129" viewBox="0 0 742 129" fill="none" xmlns="http://www.w3.org/2000/svg">
<path d="M15.9849 78.6706C19.2249 75.4106 22.4849 71.8806 24.6449 67.8806C31.2749 55.6306 37.9149 43.3406 43.7949 30.7106C46.1845 25.7634 48.2229 20.6541 49.8949 15.4206C50.8949 12.0006 54.2849 3.58061 50.7249 0.740615C48.7249 -0.869385 45.7249 0.44062 43.5449 1.87062C35.0349 7.47062 27.7249 14.4106 22.6549 23.2606C15.619 35.742 9.54792 48.7433 4.49492 62.1506C2.49492 67.3806 -0.795084 75.0106 0.174916 80.7306C0.198979 80.8389 0.229037 80.9457 0.264928 81.0506C0.266653 81.0873 0.266653 81.124 0.264928 81.1606C0.305243 81.2494 0.355564 81.3333 0.414922 81.4106C0.579143 81.6351 0.782382 81.8281 1.01493 81.9806L1.13492 82.0406C1.24016 82.1005 1.35061 82.1507 1.46493 82.1906C1.60177 82.2462 1.74206 82.293 1.88492 82.3306H1.95493C2.18794 82.392 2.42529 82.4354 2.66492 82.4606C7.74492 83.1506 12.4249 82.2706 15.9849 78.6706ZM19.0649 51.9006C17.5949 51.2306 18.2049 46.7006 20.4349 41.7906C22.6649 36.8806 25.6649 33.4306 27.1349 34.1006C28.6049 34.7706 27.9949 39.2906 25.7649 44.2006C23.5349 49.1106 20.5349 52.5606 19.0649 51.9006Z" fill="#039BF9"/>
<path d="M62.9949 106.431C56.1411 102.942 49.0814 99.8725 41.8549 97.2406C32.0349 93.7406 21.6649 91.5405 11.2449 91.8705C9.63492 91.8705 6.96492 91.8705 5.60492 92.8705C3.46492 94.4405 6.34492 96.3605 7.89492 97.2005C16.0049 101.571 24.4049 105.461 32.6349 109.581C41.7949 114.171 50.9849 118.761 60.6349 122.271C70.2849 125.781 80.3649 128.211 90.6349 128.271C91.8849 128.271 98.8149 128.151 98.0349 125.781C97.7574 125.208 97.2705 124.764 96.6749 124.541C85.4649 118.631 74.3849 112.151 62.9949 106.431ZM31.6949 105.331C28.0649 103.851 25.2849 102.271 25.4749 101.791C25.6649 101.311 28.7649 102.141 32.3949 103.621C36.0249 105.101 38.8049 106.681 38.6149 107.151C38.4249 107.621 35.3249 106.811 31.7449 105.331H31.6949ZM39.2449 103.041C35.6149 101.561 32.8349 99.9705 33.0249 99.5005C33.2149 99.0305 36.3149 99.8405 39.9449 101.321C43.5749 102.801 46.3549 104.391 46.1649 104.861C45.9749 105.331 42.8749 104.521 39.2449 103.041ZM58.4349 118.151C54.8049 116.671 52.0249 115.091 52.2149 114.621C52.4049 114.151 55.5049 114.961 59.1349 116.441C62.7649 117.921 65.5449 119.501 65.3549 119.981C65.1649 120.461 62.0649 119.671 58.4349 118.151ZM65.9849 115.861C62.3549 114.381 59.5749 112.801 59.7649 112.321C59.9549 111.841 63.0549 112.671 66.6849 114.151C70.3149 115.631 73.0949 117.211 72.9049 117.681C72.7149 118.151 69.6149 117.381 65.9849 115.901V115.861Z" fill="#0865D1"/>
<path d="M133.404 61.5106C135.954 47.5106 133.064 35.5106 120.644 27.1106C117.544 24.9906 114.644 22.5606 111.474 20.5306C102.684 14.8706 93.4738 9.97062 83.0538 8.15062C73.4038 6.47062 64.5738 8.33063 59.2338 17.0406C51.0338 30.4006 43.7238 44.3206 40.4938 59.9006C37.7438 73.1106 41.6138 84.0806 52.7338 91.9006C58.5671 96.0259 64.7047 99.7031 71.0938 102.901C77.6398 106.314 84.5106 109.064 91.6038 111.111C102.884 114.111 111.854 110.231 117.734 100.471C124.267 89.5854 129.233 77.8329 132.484 65.5606C132.794 64.2006 133.154 62.8606 133.404 61.5106ZM103.744 78.7606C102.681 79.8662 101.501 80.8521 100.224 81.7006C98.9353 82.5838 97.4436 83.1251 95.8886 83.2738C94.3336 83.4225 92.7663 83.1737 91.3338 82.5506C88.4316 81.5233 85.9404 79.583 84.2338 77.0206C83.7954 76.2367 83.4014 75.4288 83.0538 74.6006C82.5738 76.1706 82.0538 77.6006 81.7138 79.0606C81.2451 80.9319 81.2727 82.8932 81.7938 84.7506C81.841 85.1051 81.7477 85.464 81.5338 85.7506C81.4117 85.9302 81.2247 86.0556 81.0122 86.1003C80.7996 86.1451 80.578 86.1058 80.3938 85.9906C78.5538 85.0606 76.6938 84.1606 74.8438 83.2406C73.8438 82.7606 72.8938 82.2406 71.9538 81.7606C71.8104 81.684 71.6864 81.5758 71.5911 81.4441C71.4958 81.3125 71.4317 81.1607 71.4038 81.0006C71.4319 80.843 71.4974 80.6944 71.5949 80.5674C71.6923 80.4403 71.8188 80.3386 71.9638 80.2706C75.5138 79.6506 77.3038 76.9806 79.0738 74.2706C79.3428 73.8143 79.5865 73.3437 79.8038 72.8606C79.8638 72.7506 79.9138 72.6306 79.9938 72.4406C79.7838 72.4406 79.6238 72.4406 79.4738 72.4406L76.8238 73.0606C72.3538 74.1706 68.8238 72.6406 65.9438 69.2206C64.0261 66.9346 63.0605 63.9989 63.2466 61.0208C63.4327 58.0427 64.7564 55.2501 66.9438 53.2206C70.2238 50.3306 74.0638 49.8906 78.1538 50.9606C79.1538 51.2206 80.0938 51.6506 81.0938 51.9606C81.1575 49.5023 81.6904 47.0788 82.6638 44.8206C84.3538 40.3606 87.7138 38.1706 92.3938 37.9306C94.7881 37.7638 97.1763 38.3322 99.2387 39.56C101.301 40.7878 102.939 42.6163 103.934 44.8006C104.97 47.419 105.117 50.3051 104.352 53.0151C103.588 55.7252 101.955 58.1092 99.7038 59.8006L99.2038 60.1806C100.394 60.9606 101.604 61.6306 102.684 62.4806C103.918 63.4144 104.937 64.603 105.672 65.9658C106.406 67.3286 106.838 68.8334 106.938 70.3781C107.039 71.9228 106.806 73.471 106.254 74.9175C105.703 76.3639 104.847 77.6747 103.744 78.7606Z" fill="white"/>
<path d="M137.643 105.561L171.413 54.3906C173.133 52.0706 175.323 51.5006 178.313 51.3906V51.4506C179.143 51.4506 180.013 51.4506 180.973 51.4506H182.403C183.633 51.4506 184.973 51.4506 186.513 51.4506C187.411 51.4668 188.28 51.7654 188.998 52.304C189.717 52.8425 190.247 53.5936 190.513 54.4506L207.203 105.631C207.331 106.09 207.354 106.571 207.271 107.04C207.188 107.509 207.001 107.953 206.723 108.341C206.465 108.731 206.119 109.056 205.712 109.288C205.306 109.521 204.851 109.655 204.383 109.681H191.083C190.631 109.696 190.186 109.556 189.823 109.286C189.459 109.015 189.199 108.629 189.083 108.191L187.603 103.361H159.493L158.353 105.111L156.163 108.211C155.854 108.651 155.446 109.013 154.972 109.269C154.498 109.524 153.971 109.665 153.433 109.681H139.383C138.931 109.7 138.482 109.582 138.097 109.343C137.712 109.104 137.408 108.755 137.223 108.341C137.039 107.882 136.981 107.382 137.055 106.893C137.128 106.405 137.332 105.944 137.643 105.561ZM168.643 89.4006H183.413L178.573 74.1506L168.643 89.4006Z" fill="url(#paint0_linear_2066_62147)"/>
<path d="M211.953 109.61C211.545 109.632 211.138 109.558 210.763 109.395C210.388 109.232 210.056 108.984 209.793 108.671C209.531 108.358 209.344 107.988 209.249 107.59C209.153 107.193 209.151 106.778 209.243 106.38L218.613 54.4802C218.805 53.5843 219.291 52.7784 219.995 52.1911C220.698 51.6038 221.578 51.2691 222.493 51.2402H264.083C272.633 51.2402 278.333 58.0602 276.803 66.4702L274.413 79.7302C273.805 82.6136 272.538 85.3171 270.711 87.6296C268.884 89.942 266.548 91.8006 263.883 93.0602C263.796 93.0942 263.716 93.1455 263.648 93.2112C263.581 93.2768 263.527 93.3554 263.491 93.4423C263.454 93.5291 263.436 93.6223 263.436 93.7165C263.437 93.8106 263.456 93.9038 263.493 93.9902L270.343 105.92C270.555 106.28 270.667 106.69 270.667 107.108C270.668 107.526 270.557 107.936 270.346 108.297C270.135 108.657 269.832 108.955 269.467 109.16C269.103 109.364 268.691 109.468 268.273 109.46C262.543 109.46 258.993 109.64 256.653 109.61C252.653 109.67 251.333 109.5 250.603 108.05L244.333 95.8102C244.193 95.5414 243.98 95.3179 243.718 95.1656C243.456 95.0134 243.156 94.9387 242.853 94.9502H229.543C229.361 94.9574 229.186 95.0253 229.047 95.143C228.907 95.2607 228.811 95.4216 228.773 95.6002L226.823 106.37C226.633 107.266 226.147 108.072 225.443 108.657C224.739 109.243 223.859 109.575 222.943 109.6L211.953 109.61ZM231.653 79.6802C231.635 79.7613 231.635 79.8455 231.655 79.9264C231.674 80.0073 231.712 80.0825 231.765 80.1464C231.818 80.2103 231.885 80.261 231.961 80.2946C232.038 80.3282 232.12 80.3438 232.203 80.3402H253.743C254.559 80.3133 255.341 80.0141 255.967 79.4902C256.592 78.9664 257.024 78.2482 257.193 77.4502L258.773 68.7302C258.856 68.3742 258.855 68.0039 258.77 67.6484C258.685 67.293 258.518 66.9621 258.284 66.6819C258.049 66.4018 257.753 66.1799 257.418 66.0338C257.083 65.8877 256.718 65.8215 256.353 65.8402H234.813C234.63 65.8457 234.455 65.9129 234.315 66.0309C234.175 66.1489 234.079 66.3108 234.043 66.4902L231.653 79.6802Z" fill="url(#paint1_linear_2066_62147)"/>
<path d="M344.914 54.5608L343.394 62.9408C343.202 63.8357 342.715 64.6403 342.012 65.2259C341.308 65.8115 340.429 66.1442 339.514 66.1708H301.324C300.776 66.188 300.25 66.3884 299.829 66.7401C299.408 67.0918 299.118 67.5745 299.004 68.1108L294.634 92.3108C294.582 92.5499 294.585 92.7978 294.644 93.0354C294.702 93.2731 294.815 93.4941 294.972 93.6814C295.13 93.8688 295.328 94.0176 295.552 94.1163C295.776 94.215 296.02 94.261 296.264 94.2508H319.644C319.829 94.2476 320.007 94.1814 320.149 94.0632C320.29 93.9449 320.388 93.7818 320.424 93.6008L321.424 87.9508C321.443 87.8711 321.443 87.7882 321.424 87.7085C321.405 87.6288 321.368 87.5545 321.316 87.4916C321.263 87.4286 321.197 87.3786 321.122 87.3455C321.047 87.3124 320.966 87.2971 320.884 87.3008H308.334C308.092 87.3052 307.852 87.2544 307.632 87.1525C307.412 87.0505 307.218 86.8999 307.065 86.7121C306.912 86.5244 306.804 86.3043 306.748 86.0685C306.692 85.8326 306.691 85.5872 306.744 85.3508L308.564 75.2808C308.668 74.7326 308.955 74.236 309.379 73.8726C309.802 73.5092 310.336 73.3005 310.894 73.2808H338.264C338.673 73.2612 339.08 73.3364 339.455 73.5007C339.83 73.6649 340.161 73.9137 340.424 74.2276C340.686 74.5414 340.873 74.9118 340.968 75.3096C341.064 75.7075 341.066 76.122 340.974 76.5208L335.594 106.331C335.402 107.227 334.913 108.033 334.208 108.619C333.502 109.205 332.621 109.536 331.704 109.561H329.994L289.274 109.481C280.714 109.481 275.024 102.651 276.564 94.2408L281.564 66.5308C282.461 62.3069 284.75 58.5066 288.065 55.7394C291.38 52.9722 295.528 51.3985 299.844 51.2708H342.234C342.646 51.2539 343.055 51.3331 343.431 51.5022C343.807 51.6713 344.138 51.9256 344.398 52.2449C344.658 52.5643 344.84 52.9398 344.93 53.3418C345.019 53.7438 345.014 54.1612 344.914 54.5608Z" fill="url(#paint2_linear_2066_62147)"/>
<path d="M341.504 106.371L350.884 54.4306C351.067 53.5305 351.547 52.7179 352.247 52.1232C352.947 51.5284 353.826 51.1859 354.744 51.1506H403.884C404.129 51.1378 404.373 51.1822 404.598 51.2803C404.823 51.3784 405.022 51.5275 405.179 51.7157C405.336 51.9039 405.447 52.1262 405.504 52.3648C405.56 52.6034 405.56 52.8519 405.504 53.0906L403.504 64.0906C403.4 64.6388 403.113 65.1354 402.689 65.4988C402.266 65.8622 401.732 66.0709 401.174 66.0906H367.064C366.881 66.096 366.706 66.1632 366.566 66.2812C366.426 66.3993 366.33 66.5612 366.294 66.7406L365.204 72.7406C365.186 72.8203 365.186 72.9032 365.204 72.9829C365.223 73.0626 365.26 73.1368 365.313 73.1998C365.365 73.2627 365.431 73.3128 365.506 73.3459C365.581 73.379 365.662 73.3943 365.744 73.3906H393.214C393.465 73.3778 393.715 73.4243 393.945 73.5263C394.175 73.6283 394.377 73.7829 394.536 73.9777C394.694 74.1724 394.805 74.4018 394.859 74.6473C394.912 74.8927 394.907 75.1474 394.844 75.3906L393.014 85.4906C392.91 86.0388 392.623 86.5353 392.199 86.8987C391.776 87.2622 391.242 87.4709 390.684 87.4906H363.214C363.031 87.496 362.856 87.5632 362.716 87.6813C362.576 87.7993 362.48 87.9612 362.444 88.1406L361.444 93.7505C361.427 93.8309 361.429 93.9141 361.449 93.9936C361.469 94.0732 361.507 94.1471 361.56 94.2098C361.613 94.2724 361.68 94.3222 361.755 94.3553C361.83 94.3883 361.912 94.4038 361.994 94.4006H396.134C396.368 94.3945 396.601 94.4402 396.816 94.5345C397.03 94.6289 397.221 94.7694 397.375 94.9462C397.529 95.123 397.642 95.3316 397.706 95.5571C397.769 95.7826 397.783 96.0194 397.744 96.2505L395.744 107.671C395.628 108.208 395.336 108.691 394.913 109.042C394.491 109.394 393.963 109.594 393.414 109.611H344.224C343.815 109.63 343.407 109.554 343.032 109.39C342.657 109.226 342.325 108.977 342.062 108.664C341.799 108.35 341.612 107.98 341.515 107.582C341.418 107.185 341.414 106.77 341.504 106.371Z" fill="url(#paint3_linear_2066_62147)"/>
<path d="M423.395 77.1504L418.115 106.36C417.924 107.257 417.439 108.064 416.735 108.652C416.031 109.239 415.151 109.573 414.235 109.6H403.305C402.896 109.62 402.488 109.545 402.113 109.38C401.739 109.216 401.407 108.967 401.145 108.654C400.882 108.34 400.696 107.969 400.6 107.572C400.505 107.174 400.503 106.759 400.595 106.36L409.955 54.5504C410.145 53.6537 410.63 52.8468 411.334 52.2592C412.038 51.6717 412.918 51.3375 413.835 51.3104H427.745C428.196 51.2968 428.644 51.3947 429.048 51.5952C429.453 51.7958 429.802 52.0929 430.065 52.4604L446.555 81.7804C446.641 81.9198 446.766 82.0303 446.916 82.0975C447.065 82.1648 447.231 82.1858 447.393 82.1578C447.554 82.1299 447.703 82.0542 447.821 81.9406C447.939 81.827 448.021 81.6806 448.055 81.5204L452.925 54.5204C453.113 53.6228 453.598 52.815 454.302 52.2271C455.006 51.6393 455.888 51.3058 456.805 51.2804H467.745C468.153 51.2608 468.561 51.336 468.936 51.5002C469.31 51.6645 469.642 51.9133 469.904 52.2272C470.167 52.541 470.353 52.9113 470.449 53.3092C470.544 53.7071 470.546 54.1216 470.455 54.5204L461.095 106.34C460.904 107.236 460.418 108.042 459.714 108.628C459.01 109.213 458.13 109.546 457.215 109.57H445.165C444.713 109.585 444.265 109.487 443.86 109.287C443.455 109.086 443.106 108.789 442.845 108.42L424.845 76.8604C424.752 76.7369 424.626 76.6421 424.481 76.587C424.337 76.5319 424.18 76.5187 424.028 76.549C423.877 76.5793 423.737 76.6519 423.625 76.7583C423.513 76.8647 423.433 77.0006 423.395 77.1504Z" fill="url(#paint4_linear_2066_62147)"/>
<path d="M635.553 100.531L634.643 105.241C634.529 105.686 634.271 106.081 633.909 106.365C633.548 106.649 633.103 106.805 632.643 106.811H627.523C627.32 106.83 627.115 106.802 626.924 106.728C626.734 106.654 626.563 106.537 626.426 106.385C626.289 106.234 626.189 106.052 626.135 105.855C626.081 105.658 626.073 105.451 626.113 105.251L627.023 100.531C627.136 100.086 627.394 99.691 627.756 99.4086C628.118 99.1262 628.564 98.9722 629.023 98.9708H634.153C634.355 98.955 634.558 98.986 634.746 99.0613C634.935 99.1366 635.103 99.2543 635.238 99.4051C635.374 99.556 635.472 99.736 635.527 99.9313C635.582 100.126 635.591 100.332 635.553 100.531Z" fill="url(#paint5_linear_2066_62147)"/>
<path d="M649.535 90.25L646.605 105.15C646.479 105.624 646.2 106.043 645.811 106.341C645.422 106.64 644.945 106.801 644.455 106.8H638.395C638.179 106.821 637.961 106.791 637.759 106.713C637.557 106.635 637.375 106.512 637.229 106.352C637.082 106.192 636.975 106 636.915 105.791C636.856 105.583 636.845 105.363 636.885 105.15L642.085 78.7101C642.211 78.2362 642.49 77.8174 642.879 77.5189C643.268 77.2204 643.745 77.0591 644.235 77.06H651.965C652.211 77.0494 652.457 77.0974 652.681 77.1999C652.905 77.3025 653.102 77.4568 653.255 77.6501L662.405 92.6501C662.456 92.7208 662.527 92.7758 662.608 92.8089C662.689 92.8419 662.777 92.8517 662.863 92.8372C662.95 92.8226 663.03 92.7843 663.096 92.7265C663.161 92.6687 663.21 92.5938 663.235 92.51L665.935 78.75C666.061 78.2762 666.34 77.8574 666.729 77.5589C667.118 77.2605 667.595 77.0991 668.085 77.1001H674.155C674.371 77.0794 674.589 77.1091 674.791 77.1869C674.993 77.2648 675.175 77.3885 675.321 77.5485C675.468 77.7085 675.575 77.9003 675.635 78.1088C675.694 78.3173 675.705 78.5368 675.665 78.75L670.465 105.15C670.339 105.624 670.06 106.043 669.671 106.341C669.282 106.64 668.805 106.801 668.315 106.8H661.615C661.37 106.812 661.126 106.764 660.903 106.661C660.68 106.559 660.485 106.404 660.335 106.21L650.335 90.1101C650.282 90.0473 650.213 89.9995 650.136 89.9714C650.059 89.9434 649.976 89.936 649.895 89.9502C649.814 89.9643 649.738 89.9995 649.675 90.0521C649.612 90.1047 649.564 90.173 649.535 90.25Z" fill="url(#paint6_linear_2066_62147)"/>
<path d="M673.925 105.151L679.135 78.6507C679.261 78.1742 679.541 77.7529 679.932 77.4525C680.323 77.1522 680.802 76.9899 681.295 76.9908H708.565C708.695 76.9789 708.826 76.9976 708.947 77.0453C709.069 77.0929 709.178 77.1683 709.265 77.2654C709.353 77.3624 709.416 77.4785 709.451 77.6045C709.485 77.7304 709.49 77.8627 709.465 77.9908L708.355 83.6108C708.283 83.8979 708.117 84.1527 707.883 84.334C707.649 84.5154 707.361 84.6129 707.065 84.6108H688.065C687.967 84.6099 687.871 84.6418 687.793 84.7016C687.715 84.7614 687.659 84.8456 687.635 84.9407L687.035 88.0107C687.025 88.0539 687.026 88.0987 687.037 88.1416C687.048 88.1844 687.069 88.2241 687.098 88.2573C687.127 88.2905 687.164 88.3162 687.205 88.3324C687.246 88.3487 687.291 88.355 687.335 88.3507H702.575C702.705 88.3367 702.837 88.3539 702.96 88.4008C703.083 88.4477 703.192 88.5231 703.28 88.6208C703.368 88.7184 703.432 88.8354 703.465 88.9623C703.499 89.0892 703.502 89.2224 703.475 89.3507L702.475 94.5007C702.398 94.7853 702.231 95.0372 701.998 95.2177C701.765 95.3983 701.479 95.4977 701.185 95.5007H685.975C685.877 95.5015 685.782 95.5342 685.704 95.5937C685.627 95.6533 685.571 95.7365 685.545 95.8307L684.985 98.6907C684.977 98.7332 684.979 98.7769 684.991 98.8185C685.003 98.86 685.024 98.8982 685.053 98.9301C685.082 98.9621 685.118 98.9869 685.158 99.0027C685.198 99.0184 685.242 99.0245 685.285 99.0207H704.285C704.415 99.0089 704.546 99.0276 704.667 99.0752C704.789 99.1229 704.898 99.1982 704.985 99.2953C705.073 99.3924 705.136 99.5085 705.171 99.6344C705.205 99.7604 705.21 99.8926 705.185 100.021L704.055 105.841C703.979 106.128 703.811 106.382 703.576 106.563C703.34 106.744 703.052 106.842 702.755 106.841H675.445C675.224 106.865 675.001 106.836 674.793 106.757C674.586 106.678 674.4 106.55 674.252 106.385C674.103 106.22 673.996 106.022 673.939 105.807C673.882 105.593 673.877 105.368 673.925 105.151Z" fill="url(#paint7_linear_2066_62147)"/>
<path d="M741.745 78.7104L740.905 82.9804C740.781 83.4551 740.502 83.8749 740.113 84.1736C739.723 84.4724 739.246 84.6331 738.755 84.6304H729.825C729.726 84.63 729.629 84.6635 729.551 84.7252C729.473 84.787 729.418 84.8734 729.395 84.9704L725.395 105.16C725.269 105.634 724.99 106.053 724.601 106.352C724.212 106.65 723.735 106.811 723.245 106.81H717.135C716.92 106.832 716.702 106.802 716.5 106.724C716.298 106.646 716.117 106.522 715.971 106.362C715.825 106.202 715.719 106.01 715.661 105.801C715.602 105.592 715.594 105.373 715.635 105.16L719.635 84.9704C719.643 84.9275 719.64 84.8834 719.629 84.8415C719.617 84.7995 719.596 84.7608 719.567 84.7281C719.538 84.6955 719.502 84.6698 719.462 84.6528C719.422 84.6359 719.379 84.6282 719.335 84.6304H710.405C710.189 84.6532 709.97 84.625 709.767 84.5479C709.563 84.4708 709.381 84.347 709.234 84.1865C709.087 84.026 708.98 83.8332 708.921 83.6237C708.862 83.4142 708.853 83.1939 708.895 82.9804L709.735 78.7104C709.861 78.2365 710.14 77.8177 710.529 77.5192C710.918 77.2207 711.395 77.0594 711.885 77.0604H740.245C740.461 77.0392 740.678 77.0688 740.88 77.1466C741.083 77.2244 741.264 77.3484 741.409 77.5087C741.555 77.669 741.661 77.8611 741.72 78.0698C741.778 78.2784 741.787 78.4978 741.745 78.7104Z" fill="url(#paint8_linear_2066_62147)"/>
<path d="M457.744 106.38L467.124 54.4802C467.312 53.5827 467.797 52.7748 468.501 52.187C469.205 51.5991 470.087 51.2656 471.004 51.2402H512.584C521.134 51.2402 526.824 58.0602 525.314 66.4702L524.473 71.1402C524.423 71.2711 524.396 71.4099 524.394 71.5502C523.785 74.5848 522.197 77.3356 519.874 79.3802C520.084 79.1802 521.954 82.6102 522.084 82.9202C522.585 84.1404 522.826 85.4515 522.793 86.7702C522.75 87.9118 522.619 89.0484 522.403 90.1702L521.473 95.3102C520.634 99.269 518.49 102.831 515.383 105.424C512.276 108.018 508.388 109.492 504.343 109.61H460.463C460.054 109.633 459.646 109.561 459.27 109.398C458.893 109.236 458.56 108.988 458.296 108.675C458.033 108.362 457.845 107.991 457.749 107.593C457.653 107.195 457.651 106.779 457.744 106.38ZM477.593 93.8302C477.577 93.9106 477.578 93.9937 477.599 94.0732C477.619 94.1528 477.657 94.2268 477.71 94.2894C477.763 94.3521 477.829 94.4019 477.905 94.4349C477.98 94.468 478.062 94.4835 478.144 94.4802H501.144C501.962 94.456 502.748 94.1581 503.377 93.6342C504.006 93.1103 504.442 92.3906 504.613 91.5902L504.903 89.9802C504.986 89.6242 504.985 89.2539 504.9 88.8984C504.815 88.543 504.649 88.2121 504.414 87.9319C504.179 87.6518 503.883 87.4299 503.548 87.2838C503.213 87.1377 502.848 87.0715 502.483 87.0902H479.483C479.301 87.0934 479.126 87.1585 478.986 87.2748C478.846 87.3912 478.75 87.5519 478.713 87.7302L477.593 93.8302ZM481.434 72.5802C481.415 72.6599 481.415 72.7429 481.434 72.8226C481.453 72.9022 481.49 72.9765 481.542 73.0394C481.594 73.1024 481.66 73.1524 481.735 73.1855C481.81 73.2186 481.892 73.2339 481.973 73.2302H503.494C504.31 73.2038 505.094 72.9049 505.721 72.3812C506.348 71.8574 506.782 71.139 506.954 70.3402L507.244 68.7302C507.326 68.3751 507.325 68.0057 507.24 67.6511C507.156 67.2964 506.99 66.9661 506.757 66.6862C506.523 66.4062 506.228 66.1841 505.895 66.0373C505.561 65.8905 505.198 65.8231 504.834 65.8402H483.324C483.139 65.8452 482.962 65.9121 482.821 66.03C482.679 66.1479 482.582 66.31 482.543 66.4902L481.434 72.5802Z" fill="#47C1FB"/>
<path d="M524.253 106.371L533.643 54.4309C533.836 53.5334 534.323 52.7262 535.029 52.1388C535.734 51.5513 536.616 51.2175 537.533 51.1908H586.663C586.908 51.1806 587.152 51.2267 587.376 51.3254C587.6 51.4241 587.798 51.5729 587.955 51.7602C588.113 51.9476 588.225 52.1686 588.284 52.4062C588.342 52.6439 588.346 52.8917 588.293 53.1309L586.293 64.1309C586.188 64.6782 585.9 65.1738 585.477 65.5369C585.054 65.9 584.521 66.1094 583.963 66.1309H549.823C549.639 66.1341 549.461 66.2003 549.319 66.3185C549.177 66.4367 549.08 66.5998 549.043 66.7809L547.963 72.7809C547.945 72.8606 547.945 72.9435 547.964 73.0232C547.983 73.1029 548.02 73.1771 548.072 73.2401C548.124 73.3031 548.19 73.3531 548.265 73.3862C548.34 73.4193 548.422 73.4346 548.503 73.4309H575.973C576.224 73.4176 576.475 73.4638 576.704 73.5658C576.933 73.6678 577.135 73.8228 577.293 74.0179C577.451 74.213 577.561 74.4427 577.613 74.6883C577.665 74.9339 577.659 75.1884 577.593 75.4309L575.743 85.4509C575.639 85.9991 575.352 86.4956 574.929 86.8591C574.505 87.2225 573.971 87.4311 573.413 87.4509H545.973C545.789 87.4541 545.611 87.5203 545.469 87.6385C545.327 87.7567 545.23 87.9199 545.193 88.1009L544.193 93.7109C544.175 93.7906 544.175 93.8736 544.194 93.9532C544.213 94.0329 544.25 94.1071 544.302 94.1701C544.354 94.2331 544.42 94.2831 544.495 94.3162C544.57 94.3493 544.652 94.3646 544.733 94.3609H578.883C579.128 94.3507 579.372 94.3966 579.596 94.4954C579.82 94.5941 580.018 94.7428 580.175 94.9302C580.333 95.1176 580.445 95.3386 580.504 95.5762C580.562 95.8138 580.566 96.0618 580.513 96.3009L578.453 107.721C578.339 108.259 578.047 108.743 577.625 109.095C577.202 109.446 576.673 109.646 576.123 109.661H526.983C526.569 109.682 526.155 109.606 525.776 109.439C525.396 109.272 525.06 109.019 524.795 108.699C524.53 108.38 524.343 108.003 524.249 107.599C524.155 107.195 524.157 106.774 524.253 106.371Z" fill="#47C1FB"/>
<path d="M646.423 54.5305L644.903 62.9105C644.713 63.8072 644.228 64.6141 643.524 65.2016C642.82 65.7892 641.94 66.1234 641.023 66.1505H624.933C624.749 66.1555 624.572 66.2223 624.431 66.3403C624.289 66.4582 624.192 66.6203 624.153 66.8005L617.003 106.38C616.813 107.276 616.327 108.082 615.623 108.668C614.919 109.254 614.039 109.586 613.123 109.611H602.123C601.715 109.632 601.308 109.558 600.933 109.395C600.558 109.232 600.226 108.984 599.963 108.671C599.701 108.358 599.514 107.988 599.419 107.59C599.323 107.193 599.322 106.779 599.413 106.38L606.563 66.8005C606.582 66.7208 606.582 66.6378 606.563 66.5581C606.544 66.4785 606.507 66.4043 606.455 66.3413C606.403 66.2783 606.337 66.2283 606.262 66.1952C606.187 66.1621 606.105 66.1468 606.023 66.1505H589.933C589.525 66.1701 589.117 66.0949 588.742 65.9306C588.368 65.7664 588.036 65.5176 587.774 65.2037C587.511 64.8899 587.325 64.5195 587.229 64.1217C587.134 63.7238 587.132 63.3093 587.223 62.9105L588.733 54.5305C588.924 53.6348 589.41 52.8292 590.114 52.2433C590.818 51.6575 591.698 51.3254 592.613 51.3005H643.743C644.149 51.286 644.552 51.3647 644.922 51.5304C645.292 51.6962 645.619 51.9447 645.877 52.2567C646.136 52.5687 646.32 52.9359 646.415 53.3301C646.51 53.7243 646.512 54.135 646.423 54.5305Z" fill="#47C1FB"/>
<path d="M457.744 106.38L467.124 54.4802C467.312 53.5827 467.797 52.7748 468.501 52.187C469.205 51.5991 470.087 51.2656 471.004 51.2402H512.584C521.134 51.2402 526.824 58.0602 525.314 66.4702L524.473 71.1402C524.423 71.2711 524.396 71.4099 524.394 71.5502C523.785 74.5848 522.197 77.3356 519.874 79.3802C520.084 79.1802 521.954 82.6102 522.084 82.9202C522.585 84.1404 522.826 85.4515 522.793 86.7702C522.75 87.9118 522.619 89.0484 522.403 90.1702L521.473 95.3102C520.634 99.269 518.49 102.831 515.383 105.424C512.276 108.018 508.388 109.492 504.343 109.61H460.463C460.054 109.633 459.646 109.561 459.27 109.398C458.893 109.236 458.56 108.988 458.296 108.675C458.033 108.362 457.845 107.991 457.749 107.593C457.653 107.195 457.651 106.779 457.744 106.38ZM477.593 93.8302C477.577 93.9106 477.578 93.9937 477.599 94.0732C477.619 94.1528 477.657 94.2268 477.71 94.2894C477.763 94.3521 477.829 94.4019 477.905 94.4349C477.98 94.468 478.062 94.4835 478.144 94.4802H501.144C501.962 94.456 502.748 94.1581 503.377 93.6342C504.006 93.1103 504.442 92.3906 504.613 91.5902L504.903 89.9802C504.986 89.6242 504.985 89.2539 504.9 88.8984C504.815 88.543 504.649 88.2121 504.414 87.9319C504.179 87.6518 503.883 87.4299 503.548 87.2838C503.213 87.1377 502.848 87.0715 502.483 87.0902H479.483C479.301 87.0934 479.126 87.1585 478.986 87.2748C478.846 87.3912 478.75 87.5519 478.713 87.7302L477.593 93.8302ZM481.434 72.5802C481.415 72.6599 481.415 72.7429 481.434 72.8226C481.453 72.9022 481.49 72.9765 481.542 73.0394C481.594 73.1024 481.66 73.1524 481.735 73.1855C481.81 73.2186 481.892 73.2339 481.973 73.2302H503.494C504.31 73.2038 505.094 72.9049 505.721 72.3812C506.348 71.8574 506.782 71.139 506.954 70.3402L507.244 68.7302C507.326 68.3751 507.325 68.0057 507.24 67.6511C507.156 67.2964 506.99 66.9661 506.757 66.6862C506.523 66.4062 506.228 66.1841 505.895 66.0373C505.561 65.8905 505.198 65.8231 504.834 65.8402H483.324C483.139 65.8452 482.962 65.9121 482.821 66.03C482.679 66.1479 482.582 66.31 482.543 66.4902L481.434 72.5802Z" fill="white"/>
<path d="M524.253 106.371L533.643 54.4309C533.836 53.5334 534.323 52.7262 535.029 52.1388C535.734 51.5513 536.616 51.2175 537.533 51.1908H586.663C586.908 51.1806 587.152 51.2267 587.376 51.3254C587.6 51.4241 587.798 51.5729 587.955 51.7602C588.113 51.9476 588.225 52.1686 588.284 52.4062C588.342 52.6439 588.346 52.8917 588.293 53.1309L586.293 64.1309C586.188 64.6782 585.9 65.1738 585.477 65.5369C585.054 65.9 584.521 66.1094 583.963 66.1309H549.823C549.639 66.1341 549.461 66.2003 549.319 66.3185C549.177 66.4367 549.08 66.5998 549.043 66.7809L547.963 72.7809C547.945 72.8606 547.945 72.9435 547.964 73.0232C547.983 73.1029 548.02 73.1771 548.072 73.2401C548.124 73.3031 548.19 73.3531 548.265 73.3862C548.34 73.4193 548.422 73.4346 548.503 73.4309H575.973C576.224 73.4176 576.475 73.4638 576.704 73.5658C576.933 73.6678 577.135 73.8228 577.293 74.0179C577.451 74.213 577.561 74.4427 577.613 74.6883C577.665 74.9339 577.659 75.1884 577.593 75.4309L575.743 85.4509C575.639 85.9991 575.352 86.4956 574.929 86.8591C574.505 87.2225 573.971 87.4311 573.413 87.4509H545.973C545.789 87.4541 545.611 87.5203 545.469 87.6385C545.327 87.7567 545.23 87.9199 545.193 88.1009L544.193 93.7109C544.175 93.7906 544.175 93.8736 544.194 93.9532C544.213 94.0329 544.25 94.1071 544.302 94.1701C544.354 94.2331 544.42 94.2831 544.495 94.3162C544.57 94.3493 544.652 94.3646 544.733 94.3609H578.883C579.128 94.3507 579.372 94.3966 579.596 94.4954C579.82 94.5941 580.018 94.7428 580.175 94.9302C580.333 95.1176 580.445 95.3386 580.504 95.5762C580.562 95.8138 580.566 96.0618 580.513 96.3009L578.453 107.721C578.339 108.259 578.047 108.743 577.625 109.095C577.202 109.446 576.673 109.646 576.123 109.661H526.983C526.569 109.682 526.155 109.606 525.776 109.439C525.396 109.272 525.06 109.019 524.795 108.699C524.53 108.38 524.343 108.003 524.249 107.599C524.155 107.195 524.157 106.774 524.253 106.371Z" fill="white"/>
<path d="M646.423 54.5305L644.903 62.9105C644.713 63.8072 644.228 64.6141 643.524 65.2016C642.82 65.7892 641.94 66.1234 641.023 66.1505H624.933C624.749 66.1555 624.572 66.2223 624.431 66.3403C624.289 66.4582 624.192 66.6203 624.153 66.8005L617.003 106.38C616.813 107.276 616.327 108.082 615.623 108.668C614.919 109.254 614.039 109.586 613.123 109.611H602.123C601.715 109.632 601.308 109.558 600.933 109.395C600.558 109.232 600.226 108.984 599.963 108.671C599.701 108.358 599.514 107.988 599.419 107.59C599.323 107.193 599.322 106.779 599.413 106.38L606.563 66.8005C606.582 66.7208 606.582 66.6378 606.563 66.5581C606.544 66.4785 606.507 66.4043 606.455 66.3413C606.403 66.2783 606.337 66.2283 606.262 66.1952C606.187 66.1621 606.105 66.1468 606.023 66.1505H589.933C589.525 66.1701 589.117 66.0949 588.742 65.9306C588.368 65.7664 588.036 65.5176 587.774 65.2037C587.511 64.8899 587.325 64.5195 587.229 64.1217C587.134 63.7238 587.132 63.3093 587.223 62.9105L588.733 54.5305C588.924 53.6348 589.41 52.8292 590.114 52.2433C590.818 51.6575 591.698 51.3254 592.613 51.3005H643.743C644.149 51.286 644.552 51.3647 644.922 51.5304C645.292 51.6962 645.619 51.9447 645.877 52.2567C646.136 52.5687 646.32 52.9359 646.415 53.3301C646.51 53.7243 646.512 54.135 646.423 54.5305Z" fill="white"/>
<path d="M173.394 38.2105C173.102 37.9301 172.873 37.5906 172.723 37.2146C172.573 36.8386 172.505 36.4349 172.524 36.0305C172.505 35.851 172.505 35.67 172.524 35.4905L173.044 31.1205C173.113 30.4631 173.347 29.8338 173.724 29.2905C174.09 28.7604 174.585 28.3334 175.164 28.0505C175.767 27.7539 176.432 27.6032 177.104 27.6105C177.967 27.5684 178.813 27.8541 179.474 28.4105C179.765 28.6812 179.993 29.012 180.143 29.3798C180.294 29.7475 180.362 30.1436 180.344 30.5405C180.344 30.6539 180.344 30.8239 180.344 31.0505C180.344 31.1505 180.254 31.2005 180.124 31.2305H179.424H179.374C179.338 31.2408 179.3 31.2408 179.264 31.2305C179.264 31.2305 179.264 31.2305 179.264 31.1705V31.0705C179.271 30.9506 179.271 30.8304 179.264 30.7105C179.277 30.4246 179.231 30.1392 179.127 29.8723C179.024 29.6054 178.866 29.363 178.664 29.1605C178.214 28.7607 177.625 28.5557 177.024 28.5905C176.32 28.5699 175.634 28.8164 175.104 29.2805C174.573 29.7333 174.239 30.3755 174.174 31.0705L173.634 35.5305C173.627 35.6504 173.627 35.7706 173.634 35.8905C173.618 36.1775 173.665 36.4646 173.77 36.732C173.875 36.9995 174.037 37.2411 174.244 37.4405C174.69 37.8387 175.277 38.0437 175.874 38.0105C176.579 38.0315 177.267 37.7891 177.804 37.3305C178.324 36.8674 178.65 36.2241 178.714 35.5305C178.72 35.4771 178.745 35.4275 178.784 35.3905C178.807 35.379 178.833 35.373 178.859 35.373C178.885 35.373 178.911 35.379 178.934 35.3905H179.634C179.764 35.3905 179.824 35.3905 179.824 35.4705V35.5505C179.753 36.203 179.523 36.828 179.154 37.3705C178.794 37.8966 178.3 38.3177 177.724 38.5905C177.117 38.8849 176.449 39.0322 175.774 39.0205C174.905 39.074 174.05 38.783 173.394 38.2105Z" fill="white"/>
<path d="M223.073 38.7003L222.693 36.7603H222.643H218.043C218.043 36.7603 218.043 36.7603 217.953 36.8203L217.123 38.7603C217.11 38.8131 217.078 38.8598 217.035 38.8925C216.991 38.9252 216.938 38.942 216.883 38.9403H216.133C216.105 38.9427 216.077 38.9385 216.051 38.9281C216.025 38.9177 216.002 38.9013 215.983 38.8803C215.971 38.8519 215.965 38.8213 215.965 38.7904C215.965 38.7594 215.971 38.7288 215.983 38.7003L220.693 27.9804C220.707 27.9276 220.738 27.8809 220.782 27.8482C220.825 27.8155 220.879 27.7986 220.933 27.8004H221.933C221.959 27.796 221.986 27.7973 222.011 27.8044C222.037 27.8115 222.06 27.824 222.08 27.8411C222.1 27.8583 222.116 27.8797 222.127 27.9038C222.138 27.9278 222.144 27.954 222.143 27.9804L224.233 38.7003V38.7603C224.235 38.7853 224.231 38.8103 224.222 38.8336C224.213 38.8568 224.199 38.8778 224.18 38.895C224.162 38.9122 224.141 38.9252 224.117 38.933C224.093 38.9408 224.068 38.9433 224.043 38.9403H223.293C223.26 38.9562 223.223 38.9611 223.187 38.9542C223.151 38.9473 223.119 38.929 223.094 38.9021C223.069 38.8752 223.054 38.841 223.05 38.8046C223.046 38.7683 223.055 38.7317 223.073 38.7003ZM218.453 35.7804H222.453H222.513C222.521 35.7702 222.524 35.7579 222.524 35.7453C222.524 35.7328 222.521 35.7205 222.513 35.7103L221.313 29.2003V29.1403C221.313 29.1403 221.313 29.1403 221.253 29.2003L218.473 35.7103C218.403 35.7503 218.413 35.7804 218.453 35.7804Z" fill="white"/>
<path d="M261.284 38.3104C260.992 38.094 260.756 37.8098 260.598 37.4824C260.439 37.155 260.363 36.7941 260.374 36.4305C260.374 36.3305 260.374 36.2004 260.374 36.0304V35.5904C260.382 35.5296 260.41 35.4732 260.454 35.4305C260.507 35.416 260.562 35.416 260.614 35.4305H261.264C261.404 35.4305 261.464 35.5004 261.444 35.6404V36.0204C261.438 36.1003 261.438 36.1806 261.444 36.2604C261.44 36.5159 261.498 36.7685 261.613 36.9967C261.728 37.2249 261.896 37.4217 262.104 37.5704C262.644 37.9307 263.286 38.1061 263.934 38.0704C264.595 38.1069 265.248 37.9241 265.794 37.5505C266.017 37.3914 266.203 37.1871 266.341 36.951C266.478 36.7149 266.565 36.4523 266.594 36.1805C266.602 36.094 266.602 36.007 266.594 35.9205C266.595 35.6978 266.543 35.478 266.444 35.2784C266.346 35.0789 266.202 34.905 266.024 34.7704C265.406 34.3196 264.734 33.9467 264.024 33.6605C263.481 33.4404 262.95 33.19 262.434 32.9105C262.071 32.7083 261.757 32.4283 261.514 32.0904C261.27 31.7353 261.147 31.3109 261.164 30.8804C261.164 30.8004 261.164 30.6705 261.164 30.4805C261.198 30.0722 261.318 29.6757 261.516 29.3172C261.715 28.9587 261.986 28.6463 262.314 28.4004C263.074 27.8795 263.983 27.6198 264.904 27.6605C265.775 27.6109 266.636 27.8615 267.344 28.3704C267.63 28.5954 267.859 28.8848 268.012 29.215C268.165 29.5452 268.238 29.9068 268.224 30.2704C268.224 30.3571 268.224 30.4971 268.224 30.6904V30.9905C268.224 31.0189 268.218 31.047 268.207 31.0732C268.196 31.0993 268.18 31.1229 268.159 31.1426C268.139 31.1622 268.114 31.1775 268.088 31.1874C268.061 31.1974 268.033 31.2018 268.004 31.2004H267.314C267.174 31.2004 267.124 31.1305 267.144 30.9905V30.7504C267.152 30.6606 267.152 30.5703 267.144 30.4805C267.15 30.2264 267.096 29.9746 266.987 29.7453C266.877 29.516 266.715 29.3157 266.514 29.1605C265.993 28.7906 265.362 28.6105 264.724 28.6504C264.116 28.6162 263.514 28.7774 263.004 29.1105C262.792 29.2685 262.615 29.4695 262.486 29.7004C262.357 29.9313 262.278 30.1869 262.254 30.4504C262.248 30.5337 262.248 30.6172 262.254 30.7004C262.244 30.9956 262.336 31.2853 262.514 31.5204C262.718 31.7694 262.974 31.9708 263.264 32.1105C263.733 32.3601 264.218 32.5805 264.714 32.7704C265.265 33.0053 265.799 33.2759 266.314 33.5804C266.704 33.8155 267.044 34.1247 267.314 34.4905C267.568 34.8604 267.698 35.3018 267.684 35.7504C267.696 36.3552 267.529 36.9499 267.204 37.4604C266.86 37.9735 266.378 38.3791 265.814 38.6304C265.153 38.932 264.431 39.0791 263.704 39.0604C262.838 39.0792 261.988 38.816 261.284 38.3104Z" fill="white"/>
<path d="M304.745 38.8202C304.732 38.7974 304.725 38.7715 304.725 38.7452C304.725 38.7188 304.732 38.693 304.745 38.6702L306.065 27.9502C306.075 27.8931 306.103 27.8407 306.145 27.8002C306.182 27.7625 306.232 27.741 306.285 27.7402H306.985C307.125 27.7402 307.185 27.8102 307.165 27.9502L305.745 38.6702C305.745 38.6987 305.739 38.7268 305.728 38.7529C305.717 38.7791 305.7 38.8027 305.68 38.8223C305.659 38.842 305.635 38.8572 305.608 38.8672C305.582 38.8771 305.553 38.8815 305.525 38.8802H304.825C304.793 38.8681 304.765 38.8473 304.745 38.8202Z" fill="white"/>
<path d="M343.745 38.8202C343.734 38.7967 343.729 38.7711 343.729 38.7452C343.729 38.7193 343.734 38.6938 343.745 38.6702L345.065 27.9502C345.075 27.8931 345.103 27.8407 345.145 27.8002C345.185 27.7619 345.239 27.7405 345.295 27.7402H345.995C346.04 27.7405 346.084 27.7552 346.12 27.7822C346.156 27.8092 346.182 27.8471 346.195 27.8902L350.335 36.5402C350.335 36.5402 350.335 36.5902 350.385 36.5402C350.435 36.4902 350.385 36.5402 350.435 36.4702L351.485 27.9102C351.485 27.7702 351.575 27.7002 351.705 27.7002H352.405C352.43 27.7013 352.455 27.7078 352.478 27.7192C352.501 27.7307 352.521 27.7469 352.537 27.7668C352.553 27.7867 352.565 27.8097 352.572 27.8345C352.578 27.8592 352.579 27.885 352.575 27.9102L351.255 38.6302C351.253 38.6595 351.245 38.6882 351.232 38.7141C351.218 38.74 351.198 38.7626 351.175 38.7802C351.138 38.8179 351.088 38.8395 351.035 38.8402H350.335C350.288 38.8385 350.242 38.8235 350.203 38.7969C350.164 38.7704 350.134 38.7334 350.115 38.6902L345.995 30.0102C345.995 30.0102 345.945 30.0102 345.925 30.0102C345.905 30.0102 345.925 30.0102 345.925 30.0802L344.745 38.6702C344.746 38.6991 344.742 38.7279 344.731 38.7548C344.721 38.7817 344.704 38.806 344.683 38.8259C344.662 38.8459 344.637 38.861 344.61 38.8704C344.583 38.8798 344.554 38.8831 344.525 38.8802H343.825C343.794 38.8673 343.766 38.8466 343.745 38.8202Z" fill="white"/>
<path d="M389.984 38.1505C389.688 37.8538 389.458 37.4985 389.309 37.1076C389.159 36.7166 389.092 36.2986 389.114 35.8805C389.1 35.6874 389.1 35.4936 389.114 35.3005L389.614 31.3005C389.678 30.6064 389.916 29.9395 390.304 29.3605C390.668 28.8132 391.168 28.3688 391.754 28.0705C392.372 27.7514 393.059 27.59 393.754 27.6005C394.631 27.5585 395.49 27.8639 396.144 28.4505C396.441 28.7463 396.673 29.1012 396.824 29.4922C396.976 29.8832 397.044 30.3016 397.024 30.7205C397.038 30.9136 397.038 31.1074 397.024 31.3005L396.534 35.3005C396.453 35.994 396.21 36.6587 395.824 37.2405C395.46 37.7882 394.96 38.2325 394.374 38.5305C393.755 38.848 393.069 39.0093 392.374 39.0005C391.939 39.0229 391.504 38.9594 391.094 38.8135C390.684 38.6677 390.307 38.4424 389.984 38.1505ZM394.464 37.2905C395.007 36.7826 395.342 36.0913 395.404 35.3505L395.904 31.2805C395.914 31.144 395.914 31.0069 395.904 30.8705C395.928 30.5631 395.885 30.2542 395.778 29.9651C395.671 29.676 395.502 29.4137 395.283 29.1966C395.064 28.9796 394.8 28.8129 394.51 28.7082C394.22 28.6035 393.911 28.5633 393.604 28.5905C392.865 28.5626 392.146 28.8287 391.604 29.3305C391.036 29.8311 390.679 30.5276 390.604 31.2805L390.094 35.3505C390.094 35.5372 390.094 35.6772 390.094 35.7705C390.08 36.0717 390.128 36.3725 390.234 36.6546C390.341 36.9366 390.504 37.1939 390.714 37.4105C390.936 37.6206 391.199 37.7838 391.486 37.8904C391.773 37.9969 392.078 38.0445 392.384 38.0305C392.762 38.0553 393.141 38.0034 393.498 37.878C393.856 37.7525 394.184 37.5561 394.464 37.3005V37.2905Z" fill="white"/>
<path d="M472.673 38.1505C472.376 37.8546 472.144 37.4997 471.993 37.1087C471.841 36.7177 471.773 36.2993 471.793 35.8805C471.78 35.6874 471.78 35.4936 471.793 35.3005L472.293 31.3005C472.358 30.6064 472.595 29.9395 472.983 29.3605C473.348 28.8132 473.847 28.3688 474.433 28.0705C475.052 27.7526 475.738 27.5912 476.433 27.6005C477.311 27.5585 478.17 27.8639 478.824 28.4505C479.121 28.7463 479.353 29.1012 479.504 29.4922C479.656 29.8832 479.724 30.3016 479.704 30.7205C479.717 30.9136 479.717 31.1074 479.704 31.3005L479.213 35.3005C479.133 35.994 478.889 36.6587 478.503 37.2405C478.142 37.7903 477.642 38.2352 477.053 38.5305C476.435 38.848 475.749 39.0093 475.053 39.0005C474.62 39.0238 474.187 38.9607 473.778 38.8147C473.369 38.6688 472.994 38.443 472.673 38.1505ZM477.144 37.2905C477.686 36.7826 478.021 36.0913 478.084 35.3505L478.584 31.2805C478.593 31.144 478.593 31.0069 478.584 30.8705C478.599 30.5646 478.552 30.2589 478.445 29.9718C478.338 29.6848 478.175 29.4223 477.963 29.2005C477.74 28.9889 477.476 28.8256 477.187 28.7207C476.898 28.6157 476.59 28.5714 476.283 28.5905C475.545 28.5648 474.827 28.8306 474.283 29.3305C473.722 29.8353 473.366 30.5296 473.283 31.2805L472.774 35.3505C472.774 35.5372 472.774 35.6772 472.774 35.7705C472.76 36.0717 472.807 36.3725 472.914 36.6546C473.021 36.9366 473.184 37.1939 473.394 37.4105C473.616 37.6206 473.879 37.7838 474.165 37.8904C474.452 37.9969 474.758 38.0445 475.063 38.0305C475.441 38.0553 475.821 38.0034 476.178 37.878C476.535 37.7525 476.864 37.5561 477.144 37.3005V37.2905Z" fill="white"/>
<path d="M516.383 38.8202C516.37 38.7974 516.363 38.7715 516.363 38.7452C516.363 38.7188 516.37 38.693 516.383 38.6702L517.703 27.9502C517.706 27.9211 517.715 27.8929 517.728 27.8672C517.742 27.8414 517.761 27.8187 517.783 27.8002C517.82 27.7625 517.871 27.741 517.923 27.7402H518.623C518.67 27.7399 518.715 27.7543 518.753 27.7812C518.79 27.8081 518.819 27.8463 518.833 27.8902L522.963 36.5402C522.963 36.5402 522.963 36.5902 523.013 36.5402C523.022 36.5177 523.022 36.4928 523.013 36.4702L524.063 27.9102C524.063 27.7702 524.153 27.7002 524.283 27.7002H524.983C525.036 27.7009 525.086 27.7225 525.123 27.7602C525.134 27.7839 525.139 27.8094 525.139 27.8352C525.139 27.861 525.134 27.8865 525.123 27.9102L523.803 38.6302C523.796 38.6883 523.767 38.7416 523.723 38.7802C523.683 38.8185 523.629 38.84 523.573 38.8402H522.873C522.827 38.8364 522.782 38.8205 522.744 38.7942C522.705 38.7679 522.674 38.7321 522.653 38.6902L518.533 30.0102C518.533 30.0102 518.533 30.0102 518.473 30.0102C518.413 30.0102 518.473 30.0102 518.473 30.0802L517.473 38.6702C517.473 38.6996 517.467 38.7286 517.456 38.7555C517.444 38.7824 517.427 38.8064 517.405 38.8262C517.383 38.846 517.358 38.8611 517.33 38.8704C517.302 38.8797 517.273 38.883 517.243 38.8802H516.543C516.514 38.8863 516.483 38.884 516.455 38.8734C516.426 38.8627 516.402 38.8443 516.383 38.8202Z" fill="white"/>
<path d="M561.745 38.8202C561.732 38.7974 561.725 38.7715 561.725 38.7452C561.725 38.7188 561.732 38.693 561.745 38.6702L563.065 27.9502C563.067 27.9211 563.076 27.8929 563.09 27.8672C563.103 27.8414 563.122 27.8187 563.145 27.8002C563.182 27.7625 563.232 27.741 563.285 27.7402H563.985C564.125 27.7402 564.185 27.8102 564.155 27.9502L562.955 37.8102C562.955 37.8702 562.955 37.8902 563.015 37.8902H568.405C568.457 37.8909 568.508 37.9125 568.545 37.9502C568.555 37.9739 568.56 37.9994 568.56 38.0252C568.56 38.051 568.555 38.0765 568.545 38.1002L568.465 38.6702C568.463 38.6991 568.456 38.7275 568.444 38.7537C568.432 38.7799 568.415 38.8034 568.393 38.8229C568.372 38.8424 568.347 38.8575 568.32 38.8674C568.292 38.8772 568.264 38.8815 568.235 38.8802H561.875C561.85 38.881 561.825 38.876 561.803 38.8655C561.78 38.8551 561.76 38.8396 561.745 38.8202Z" fill="white"/>
<path d="M605.534 38.8203C605.523 38.7968 605.518 38.7712 605.518 38.7453C605.518 38.7194 605.523 38.6939 605.534 38.6704L606.854 27.9503C606.864 27.8932 606.892 27.8409 606.934 27.8004C606.953 27.7805 606.977 27.7649 607.003 27.7545C607.028 27.7442 607.056 27.7394 607.084 27.7404H607.784C607.914 27.7404 607.974 27.8103 607.954 27.9503L606.634 38.6704C606.634 38.8104 606.544 38.8803 606.414 38.8803H605.714C605.681 38.8881 605.647 38.8866 605.615 38.876C605.584 38.8654 605.555 38.8461 605.534 38.8203Z" fill="white"/>
<path d="M644.524 38.8202C644.513 38.7967 644.508 38.7711 644.508 38.7452C644.508 38.7193 644.513 38.6938 644.524 38.6702L645.844 27.9502C645.847 27.9211 645.855 27.8929 645.869 27.8672C645.883 27.8414 645.902 27.8187 645.924 27.8002C645.961 27.7625 646.011 27.741 646.064 27.7402H646.764C646.81 27.7414 646.855 27.7562 646.892 27.783C646.93 27.8097 646.958 27.8471 646.974 27.8902L651.104 36.5402C651.113 36.5177 651.113 36.4928 651.104 36.4702L652.154 27.9102C652.154 27.7702 652.244 27.7002 652.374 27.7002H653.074C653.127 27.7009 653.177 27.7225 653.214 27.7602C653.224 27.7839 653.23 27.8094 653.23 27.8352C653.23 27.861 653.224 27.8865 653.214 27.9102L651.894 38.6302C651.882 38.6891 651.851 38.7421 651.804 38.7802C651.787 38.7998 651.765 38.8154 651.741 38.8257C651.717 38.8361 651.69 38.8411 651.664 38.8402H650.964C650.918 38.8364 650.873 38.8205 650.834 38.7942C650.796 38.7679 650.765 38.7321 650.744 38.6902L646.744 30.0502C646.744 30.0502 646.744 30.0502 646.684 30.0502C646.624 30.0502 646.684 30.0502 646.684 30.1202L645.684 38.7102C645.686 38.7391 645.681 38.7679 645.67 38.7948C645.66 38.8217 645.644 38.8459 645.623 38.8659C645.602 38.8859 645.577 38.9011 645.549 38.9105C645.522 38.9198 645.493 38.9232 645.464 38.9202H644.764C644.719 38.9349 644.67 38.9329 644.626 38.9146C644.582 38.8962 644.546 38.8627 644.524 38.8202Z" fill="white"/>
<path d="M697.674 28.7305H692.054C692.054 28.7305 691.984 28.7304 691.964 28.8104L691.484 32.7104C691.482 32.7213 691.483 32.7325 691.487 32.743C691.49 32.7535 691.496 32.763 691.504 32.7708C691.511 32.7786 691.521 32.7844 691.531 32.7878C691.542 32.7913 691.553 32.7922 691.564 32.7905H695.474C695.614 32.7905 695.674 32.8505 695.654 32.9905L695.594 33.5604C695.586 33.6213 695.558 33.6778 695.514 33.7205C695.462 33.7349 695.406 33.7349 695.354 33.7205H691.434C691.434 33.7205 691.364 33.7205 691.344 33.8005L690.864 37.8005C690.864 37.8605 690.864 37.8804 690.924 37.8804H696.544C696.684 37.8804 696.744 37.9505 696.724 38.0905L696.654 38.6605C696.652 38.6898 696.644 38.7185 696.631 38.7444C696.617 38.7703 696.597 38.7928 696.574 38.8104C696.537 38.8481 696.487 38.8697 696.434 38.8704H689.834C689.808 38.8713 689.781 38.8664 689.757 38.856C689.733 38.8457 689.711 38.8301 689.694 38.8104C689.681 38.7876 689.674 38.7618 689.674 38.7355C689.674 38.7091 689.681 38.6833 689.694 38.6605L691.014 27.9404C691.024 27.8833 691.052 27.831 691.094 27.7905C691.131 27.7528 691.181 27.7312 691.234 27.7305H697.844C697.869 27.7315 697.894 27.738 697.917 27.7495C697.94 27.7609 697.96 27.7772 697.976 27.7971C697.992 27.8169 698.004 27.84 698.011 27.8647C698.017 27.8894 698.018 27.9152 698.014 27.9404L697.934 28.5104C697.874 28.6604 697.804 28.7305 697.674 28.7305Z" fill="white"/>
<defs>
<linearGradient id="paint0_linear_2066_62147" x1="470.513" y1="80.4906" x2="137.033" y2="80.4906" gradientUnits="userSpaceOnUse">
<stop stop-color="#0565CB"/>
<stop offset="0.09" stop-color="#1880D9"/>
<stop offset="0.2" stop-color="#2A98E5"/>
<stop offset="0.32" stop-color="#37ABEF"/> 
<stop offset="0.46" stop-color="#41B8F6"/>
<stop offset="0.64" stop-color="#46C0FA"/>
<stop offset="0.99" stop-color="#48C2FB"/>
</linearGradient>
<linearGradient id="paint1_linear_2066_62147" x1="470.513" y1="80.4302" x2="137.033" y2="80.4302" gradientUnits="userSpaceOnUse">
<stop stop-color="#0565CB"/>
<stop offset="0.09" stop-color="#1880D9"/>
<stop offset="0.2" stop-color="#2A98E5"/>
<stop offset="0.32" stop-color="#37ABEF"/>
<stop offset="0.46" stop-color="#41B8F6"/>
<stop offset="0.64" stop-color="#46C0FA"/>
<stop offset="0.99" stop-color="#48C2FB"/>
</linearGradient>
<linearGradient id="paint2_linear_2066_62147" x1="470.514" y1="80.4708" x2="137.034" y2="80.4708" gradientUnits="userSpaceOnUse">
<stop stop-color="#0565CB"/>
<stop offset="0.09" stop-color="#1880D9"/>
<stop offset="0.2" stop-color="#2A98E5"/>
<stop offset="0.32" stop-color="#37ABEF"/>
<stop offset="0.46" stop-color="#41B8F6"/>
<stop offset="0.64" stop-color="#46C0FA"/>
<stop offset="0.99" stop-color="#48C2FB"/>
</linearGradient>
<linearGradient id="paint3_linear_2066_62147" x1="470.514" y1="80.4006" x2="137.034" y2="80.4006" gradientUnits="userSpaceOnUse">
<stop stop-color="#0565CB"/>
<stop offset="0.09" stop-color="#1880D9"/>
<stop offset="0.2" stop-color="#2A98E5"/>
<stop offset="0.32" stop-color="#37ABEF"/>
<stop offset="0.46" stop-color="#41B8F6"/>
<stop offset="0.64" stop-color="#46C0FA"/>
<stop offset="0.99" stop-color="#48C2FB"/>
</linearGradient>
<linearGradient id="paint4_linear_2066_62147" x1="470.515" y1="80.4704" x2="137.035" y2="80.4704" gradientUnits="userSpaceOnUse">
<stop stop-color="#0565CB"/>
<stop offset="0.09" stop-color="#1880D9"/>
<stop offset="0.2" stop-color="#2A98E5"/>
<stop offset="0.32" stop-color="#37ABEF"/>
<stop offset="0.46" stop-color="#41B8F6"/>
<stop offset="0.64" stop-color="#46C0FA"/>
<stop offset="0.99" stop-color="#48C2FB"/>
</linearGradient>
<linearGradient id="paint5_linear_2066_62147" x1="741.743" y1="102.891" x2="626.083" y2="102.891" gradientUnits="userSpaceOnUse">
<stop stop-color="#0565CB"/>
<stop offset="0.02" stop-color="#0A6CCF"/>
<stop offset="0.09" stop-color="#1D87DC"/>
<stop offset="0.17" stop-color="#2D9DE8"/>
<stop offset="0.26" stop-color="#39AEF0"/>
<stop offset="0.38" stop-color="#42B9F7"/>
<stop offset="0.54" stop-color="#47C0FA"/>
<stop offset="0.99" stop-color="#48C2FB"/>
</linearGradient>
<linearGradient id="paint6_linear_2066_62147" x1="741.745" y1="91.9401" x2="626.085" y2="91.9401" gradientUnits="userSpaceOnUse">
<stop stop-color="#0565CB"/>
<stop offset="0.02" stop-color="#0A6CCF"/>
<stop offset="0.09" stop-color="#1D87DC"/>
<stop offset="0.17" stop-color="#2D9DE8"/>
<stop offset="0.26" stop-color="#39AEF0"/>
<stop offset="0.38" stop-color="#42B9F7"/>
<stop offset="0.54" stop-color="#47C0FA"/>
<stop offset="0.99" stop-color="#48C2FB"/>
</linearGradient>
<linearGradient id="paint7_linear_2066_62147" x1="741.745" y1="91.9107" x2="626.085" y2="91.9107" gradientUnits="userSpaceOnUse">
<stop stop-color="#0565CB"/>
<stop offset="0.02" stop-color="#0A6CCF"/>
<stop offset="0.09" stop-color="#1D87DC"/>
<stop offset="0.17" stop-color="#2D9DE8"/>
<stop offset="0.26" stop-color="#39AEF0"/>
<stop offset="0.38" stop-color="#42B9F7"/>
<stop offset="0.54" stop-color="#47C0FA"/>
<stop offset="0.99" stop-color="#48C2FB"/>
</linearGradient>
<linearGradient id="paint8_linear_2066_62147" x1="741.745" y1="91.9304" x2="626.085" y2="91.9304" gradientUnits="userSpaceOnUse">
<stop stop-color="#0565CB"/>
<stop offset="0.02" stop-color="#0A6CCF"/>
<stop offset="0.09" stop-color="#1D87DC"/>
<stop offset="0.17" stop-color="#2D9DE8"/>
<stop offset="0.26" stop-color="#39AEF0"/>
<stop offset="0.38" stop-color="#42B9F7"/>
<stop offset="0.54" stop-color="#47C0FA"/>
<stop offset="0.99" stop-color="#48C2FB"/>
</linearGradient>
</defs>
</svg>
